# xmcd CD database file generated by Grip 3.2.0
# 
# Track frame offsets:
#       150
#       17699
#       28064
#       40152
#       54064
#       65154
#       80414
#       93397
#       106754
#       112502
#       121392
#       136534
#       143709
#       159947
#       169434
#       178404
#       189849
#       245944
# 
# Disc length: 4440 seconds
# 
# Revision: 2
# Processed by: cddbd v1.5.2PL0 Copyright (c) Steve Scherf et al.
# Submitted via: Grip 3.2.0
# 
DISCID=e6115612
DTITLE=Cartola - Viva Cartola
DYEAR=2004
DGENRE=Samba
TTITLE0=O Mundo É Un Moinho
TTITLE1=Minha
TTITLE2=Não Posso Viver Sem Ela
TTITLE3=Meu Drama (Senhora Tentação)
TTITLE4=Sei Chorar
TTITLE5=Ensaboa
TTITLE6=As Rosas Não Falam
TTITLE7=Preciso Me Encontrar
TTITLE8=Acontece
TTITLE9=Disfarça E Chora
TTITLE10=Corra E Olhe O Céu
TTITLE11=O Sol Nascerá (A Sorrir)
TTITLE12=Sim
TTITLE13=Tive Sim
TTITLE14=Festa Da Vinda
TTITLE15=Amor Proibido (Toda Culpa)
TTITLE16=Tempos Idos - Ao Amanhecer - Alvorada - Quem Me Vê Sorrindo - Alegria
TTITLE17=Data
EXTD=YEAR: 2004
EXTT0=
EXTT1=
EXTT2=
EXTT3=
EXTT4=
EXTT5=
EXTT6=
EXTT7=
EXTT8=
EXTT9=
EXTT10=
EXTT11=
EXTT12=
EXTT13=
EXTT14=
EXTT15=
EXTT16=
EXTT17=
PLAYORDER=
